<svg xmlns="http://www.w3.org/2000/svg" viewBox="0 0 148 58" role="img" aria-labelledby="title">
  <title id="title">Align</title>
  <g fill="#7f90c7">
    <path d="M4 35c0-8.3 6.6-13.1 18.1-13.1h9.4v-1.2c0-5-3.4-7.8-9.7-7.8-5.5 0-10.4 1.4-14.8 4.1V7.6C11.7 4.9 17.8 3.5 25.2 3.5c11.8 0 18.5 6.1 18.5 16.8V51H32.4l-.6-5.6c-3.4 4.4-8.2 6.6-14.2 6.6C9.3 52 4 45.4 4 35Zm27.5-4.9h-8.1c-5.3 0-8.2 2-8.2 5.5 0 3.7 2.8 5.9 7.2 5.9 4.2 0 7.4-1.8 9.1-5.1v-6.3Z"/>
    <path d="M51.4 0h12.1v51H51.4V0Z"/>
    <path d="M72.1 3.7c0-3.3 2.7-5.8 6.3-5.8s6.4 2.5 6.4 5.8-2.7 5.8-6.4 5.8-6.3-2.5-6.3-5.8Zm.3 13.2h12V51h-12V16.9Z"/>
    <path d="M91.4 33.9c0-10.6 6.9-18 16.7-18 5.2 0 9.3 1.9 12 5.6l.6-4.6h11.2v31.9c0 11.2-8.2 18.2-21.1 18.2-6.4 0-12-1.3-16.7-4v-9.9c4.7 3 9.9 4.5 15.7 4.5 6.4 0 10.2-3.2 10.2-8.7v-3.1c-2.8 3.2-6.6 4.8-11.6 4.8-10 0-17-6.9-17-16.7Zm28.6.1c0-5.1-3.4-8.7-8.2-8.7-4.9 0-8.3 3.6-8.3 8.7 0 5 3.4 8.5 8.3 8.5 4.8 0 8.2-3.5 8.2-8.5Z"/>
    <path d="M139.1 16.9h11.4l.5 4.5c2.7-3.6 6.9-5.5 12.3-5.5 8.6 0 14 5.8 14 15.2V51h-12V33c0-4.6-2.7-7.4-7.1-7.4-4.2 0-7 2.9-7 7.5V51h-12.1V16.9Z"/>
  </g>
  <g transform="translate(88 12)">
    <path fill="#1a4f91" d="M24 0 54 9.4 30 18.9 0 9.4 24 0Z"/>
    <path fill="#143f74" d="M0 9.4v9.8l30 10.1V18.9L0 9.4Z"/>
    <path fill="#0f3562" d="M54 9.4v9.8L30 29.3V18.9L54 9.4Z"/>
    <path fill="#2d67ad" d="M6 24.7 30 32.7 49 24.8 54 26.4 30 36.4 0 26.4 6 24.7Z"/>
    <path fill="#143f74" d="M0 26.4v9.1l30 10.1v-9.2L0 26.4Z"/>
    <path fill="#0f3562" d="M54 26.4v9.1L30 45.6v-9.2l24-10Z"/>
    <path fill="#2d67ad" d="M6 41 30 49 49 41.1l5 1.7-24 10-30-10L6 41Z"/>
  </g>
</svg>
